<?xml version="1.0" encoding="UTF-8" standalone="no"?>
<!DOCTYPE svg PUBLIC "-//W3C//DTD SVG 1.0//EN" "http://www.w3.org/TR/2001/PR-SVG-20010719/DTD/svg10.dtd">
<svg width="11cm" height="8cm" viewBox="635 395 218 146" xmlns="http://www.w3.org/2000/svg" xmlns:xlink="http://www.w3.org/1999/xlink">
  <g>
    <rect style="fill: #d8e5e5" x="760" y="396" width="92" height="144"/>
    <rect style="fill: none; fill-opacity:0; stroke-width: 1; stroke: #000000" x="760" y="396" width="92" height="144"/>
  </g>
  <g>
    <rect style="fill: #d8e5e5" x="636" y="396" width="88" height="144"/>
    <rect style="fill: none; fill-opacity:0; stroke-width: 1; stroke: #000000" x="636" y="396" width="88" height="144"/>
  </g>
  <g>
    <path style="fill: #b7b79d" d="M 656 426.814 L 695.969,426.814 L 695.969,434.2 L 656,434.2 L 656,426.814z"/>
    <path style="fill: none; fill-opacity:0; stroke-width: 0.01; stroke: #494936" d="M 656 426.814 L 695.969,426.814 L 695.969,434.2 L 656,434.2 L 656,426.814"/>
    <path style="fill: #c9c9b6" d="M 656 426.814 L 660.238,422.796 L 700.207,422.796 L 695.969,426.814 L 656,426.814z"/>
    <path style="fill: none; fill-opacity:0; stroke-width: 0.01; stroke: #494936" d="M 656 426.814 L 660.238,422.796 L 700.207,422.796 L 695.969,426.814 L 656,426.814"/>
    <path style="fill: none; fill-opacity:0; stroke-width: 1.06; stroke: #000000" d="M 693.733 430.176 L 684.142,430.176"/>
    <path style="fill: #7a7a5a" d="M 695.969 434.2 L 700.207,429.95 L 700.207,422.796 L 695.969,426.814 L 695.969,434.2z"/>
    <path style="fill: none; fill-opacity:0; stroke-width: 0.01; stroke: #494936" d="M 695.969 434.2 L 700.207,429.95 L 700.207,422.796 L 695.969,426.814 L 695.969,434.2"/>
    <path style="fill: #c9c9b6" d="M 656.227 438.885 L 660.685,433.3 L 691.504,433.3 L 687.045,438.885 L 656.227,438.885z"/>
    <path style="fill: none; fill-opacity:0; stroke-width: 0.01; stroke: #494936" d="M 656.227 438.885 L 660.685,433.3 L 691.504,433.3 L 687.045,438.885 L 656.227,438.885"/>
    <path style="fill: #7a7a5a" d="M 687.045 440 L 691.504,435.315 L 691.504,433.3 L 687.045,438.885 L 687.045,440z"/>
    <path style="fill: none; fill-opacity:0; stroke-width: 0.01; stroke: #494936" d="M 687.045 440 L 691.504,435.315 L 691.504,433.3 L 687.045,438.885 L 687.045,440"/>
    <path style="fill: #b7b79d" d="M 656.227 438.885 L 687.045,438.885 L 687.045,440 L 656.227,440 L 656.227,438.885z"/>
    <path style="fill: none; fill-opacity:0; stroke-width: 0.01; stroke: #494936" d="M 656.227 438.885 L 687.045,438.885 L 687.045,440 L 656.227,440 L 656.227,438.885"/>
    <path style="fill: #000000" d="M 662.026 425.926 L 665.383,422.796 L 693.733,422.796 L 690.616,425.926 L 662.026,425.926z"/>
    <path style="fill: none; fill-opacity:0; stroke-width: 0.01; stroke: #000000" d="M 662.026 425.926 L 665.383,422.796 L 693.733,422.796 L 690.616,425.926 L 662.026,425.926"/>
    <path style="fill: #c9c9b6" d="M 661.8 402.903 L 664.936,400 L 693.298,400 L 690.162,402.903 L 661.8,402.903z"/>
    <path style="fill: none; fill-opacity:0; stroke-width: 0.01; stroke: #494936" d="M 661.8 402.903 L 664.936,400 L 693.298,400 L 690.162,402.903 L 661.8,402.903"/>
    <path style="fill: #b7b79d" d="M 661.8 402.903 L 690.389,402.903 L 690.389,425.472 L 661.8,425.472 L 661.8,402.903z"/>
    <path style="fill: none; fill-opacity:0; stroke-width: 0.01; stroke: #494936" d="M 661.8 402.903 L 690.377,402.903 L 690.377,425.466 L 661.8,425.466 L 661.8,402.903"/>
    <path style="fill: #ffffff" d="M 664.256 405.8 L 687.927,405.8 L 687.927,423.237 L 664.256,423.237 L 664.256,405.8z"/>
    <path style="fill: none; fill-opacity:0; stroke-width: 0.01; stroke: #494936" d="M 664.256 405.8 L 687.927,405.8 L 687.927,423.23 L 664.256,423.23 L 664.256,405.8"/>
    <path style="fill: #7a7a5a" d="M 690.162 425.258 L 693.298,422.128 L 693.298,400 L 690.162,402.903 L 690.162,425.258z"/>
    <path style="fill: none; fill-opacity:0; stroke-width: 0.01; stroke: #494936" d="M 690.162 425.258 L 693.298,422.128 L 693.298,400 L 690.162,402.903 L 690.162,425.258"/>
  </g>
  <text font-size="12.8" style="fill: #000000;text-anchor:start;font-family:sans-serif;font-style:normal;font-weight:normal" x="678.626" y="423.576">
    <tspan x="678.626" y="423.576"></tspan>
  </text>
  <text font-size="12.8" style="fill: #000000;text-anchor:start;font-family:sans-serif;font-style:normal;font-weight:normal" x="660" y="452">
    <tspan x="660" y="452">VM1</tspan>
  </text>
  <g>
    <path style="fill: #b7b79d" d="M 656 486.814 L 695.969,486.814 L 695.969,494.2 L 656,494.2 L 656,486.814z"/>
    <path style="fill: none; fill-opacity:0; stroke-width: 0.01; stroke: #494936" d="M 656 486.814 L 695.969,486.814 L 695.969,494.2 L 656,494.2 L 656,486.814"/>
    <path style="fill: #c9c9b6" d="M 656 486.814 L 660.238,482.796 L 700.207,482.796 L 695.969,486.814 L 656,486.814z"/>
    <path style="fill: none; fill-opacity:0; stroke-width: 0.01; stroke: #494936" d="M 656 486.814 L 660.238,482.796 L 700.207,482.796 L 695.969,486.814 L 656,486.814"/>
    <path style="fill: none; fill-opacity:0; stroke-width: 1.06; stroke: #000000" d="M 693.733 490.176 L 684.142,490.176"/>
    <path style="fill: #7a7a5a" d="M 695.969 494.2 L 700.207,489.95 L 700.207,482.796 L 695.969,486.814 L 695.969,494.2z"/>
    <path style="fill: none; fill-opacity:0; stroke-width: 0.01; stroke: #494936" d="M 695.969 494.2 L 700.207,489.95 L 700.207,482.796 L 695.969,486.814 L 695.969,494.2"/>
    <path style="fill: #c9c9b6" d="M 656.227 498.885 L 660.685,493.3 L 691.504,493.3 L 687.045,498.885 L 656.227,498.885z"/>
    <path style="fill: none; fill-opacity:0; stroke-width: 0.01; stroke: #494936" d="M 656.227 498.885 L 660.685,493.3 L 691.504,493.3 L 687.045,498.885 L 656.227,498.885"/>
    <path style="fill: #7a7a5a" d="M 687.045 500 L 691.504,495.315 L 691.504,493.3 L 687.045,498.885 L 687.045,500z"/>
    <path style="fill: none; fill-opacity:0; stroke-width: 0.01; stroke: #494936" d="M 687.045 500 L 691.504,495.315 L 691.504,493.3 L 687.045,498.885 L 687.045,500"/>
    <path style="fill: #b7b79d" d="M 656.227 498.885 L 687.045,498.885 L 687.045,500 L 656.227,500 L 656.227,498.885z"/>
    <path style="fill: none; fill-opacity:0; stroke-width: 0.01; stroke: #494936" d="M 656.227 498.885 L 687.045,498.885 L 687.045,500 L 656.227,500 L 656.227,498.885"/>
    <path style="fill: #000000" d="M 662.026 485.926 L 665.383,482.796 L 693.733,482.796 L 690.616,485.926 L 662.026,485.926z"/>
    <path style="fill: none; fill-opacity:0; stroke-width: 0.01; stroke: #000000" d="M 662.026 485.926 L 665.383,482.796 L 693.733,482.796 L 690.616,485.926 L 662.026,485.926"/>
    <path style="fill: #c9c9b6" d="M 661.8 462.903 L 664.936,460 L 693.298,460 L 690.162,462.903 L 661.8,462.903z"/>
    <path style="fill: none; fill-opacity:0; stroke-width: 0.01; stroke: #494936" d="M 661.8 462.903 L 664.936,460 L 693.298,460 L 690.162,462.903 L 661.8,462.903"/>
    <path style="fill: #b7b79d" d="M 661.8 462.903 L 690.389,462.903 L 690.389,485.472 L 661.8,485.472 L 661.8,462.903z"/>
    <path style="fill: none; fill-opacity:0; stroke-width: 0.01; stroke: #494936" d="M 661.8 462.903 L 690.377,462.903 L 690.377,485.466 L 661.8,485.466 L 661.8,462.903"/>
    <path style="fill: #ffffff" d="M 664.256 465.8 L 687.927,465.8 L 687.927,483.237 L 664.256,483.237 L 664.256,465.8z"/>
    <path style="fill: none; fill-opacity:0; stroke-width: 0.01; stroke: #494936" d="M 664.256 465.8 L 687.927,465.8 L 687.927,483.23 L 664.256,483.23 L 664.256,465.8"/>
    <path style="fill: #7a7a5a" d="M 690.162 485.258 L 693.298,482.128 L 693.298,460 L 690.162,462.903 L 690.162,485.258z"/>
    <path style="fill: none; fill-opacity:0; stroke-width: 0.01; stroke: #494936" d="M 690.162 485.258 L 693.298,482.128 L 693.298,460 L 690.162,462.903 L 690.162,485.258"/>
  </g>
  <text font-size="12.8" style="fill: #000000;text-anchor:start;font-family:sans-serif;font-style:normal;font-weight:normal" x="660" y="512">
    <tspan x="660" y="512">VM2</tspan>
  </text>
  <g>
    <path style="fill: #b7b79d" d="M 780 426.814 L 819.969,426.814 L 819.969,434.2 L 780,434.2 L 780,426.814z"/>
    <path style="fill: none; fill-opacity:0; stroke-width: 0.01; stroke: #494936" d="M 780 426.814 L 819.969,426.814 L 819.969,434.2 L 780,434.2 L 780,426.814"/>
    <path style="fill: #c9c9b6" d="M 780 426.814 L 784.238,422.796 L 824.207,422.796 L 819.969,426.814 L 780,426.814z"/>
    <path style="fill: none; fill-opacity:0; stroke-width: 0.01; stroke: #494936" d="M 780 426.814 L 784.238,422.796 L 824.207,422.796 L 819.969,426.814 L 780,426.814"/>
    <path style="fill: none; fill-opacity:0; stroke-width: 1.06; stroke: #000000" d="M 817.733 430.176 L 808.142,430.176"/>
    <path style="fill: #7a7a5a" d="M 819.969 434.2 L 824.207,429.95 L 824.207,422.796 L 819.969,426.814 L 819.969,434.2z"/>
    <path style="fill: none; fill-opacity:0; stroke-width: 0.01; stroke: #494936" d="M 819.969 434.2 L 824.207,429.95 L 824.207,422.796 L 819.969,426.814 L 819.969,434.2"/>
    <path style="fill: #c9c9b6" d="M 780.227 438.885 L 784.685,433.3 L 815.504,433.3 L 811.045,438.885 L 780.227,438.885z"/>
    <path style="fill: none; fill-opacity:0; stroke-width: 0.01; stroke: #494936" d="M 780.227 438.885 L 784.685,433.3 L 815.504,433.3 L 811.045,438.885 L 780.227,438.885"/>
    <path style="fill: #7a7a5a" d="M 811.045 440 L 815.504,435.315 L 815.504,433.3 L 811.045,438.885 L 811.045,440z"/>
    <path style="fill: none; fill-opacity:0; stroke-width: 0.01; stroke: #494936" d="M 811.045 440 L 815.504,435.315 L 815.504,433.3 L 811.045,438.885 L 811.045,440"/>
    <path style="fill: #b7b79d" d="M 780.227 438.885 L 811.045,438.885 L 811.045,440 L 780.227,440 L 780.227,438.885z"/>
    <path style="fill: none; fill-opacity:0; stroke-width: 0.01; stroke: #494936" d="M 780.227 438.885 L 811.045,438.885 L 811.045,440 L 780.227,440 L 780.227,438.885"/>
    <path style="fill: #000000" d="M 786.026 425.926 L 789.383,422.796 L 817.733,422.796 L 814.616,425.926 L 786.026,425.926z"/>
    <path style="fill: none; fill-opacity:0; stroke-width: 0.01; stroke: #000000" d="M 786.026 425.926 L 789.383,422.796 L 817.733,422.796 L 814.616,425.926 L 786.026,425.926"/>
    <path style="fill: #c9c9b6" d="M 785.8 402.903 L 788.936,400 L 817.298,400 L 814.162,402.903 L 785.8,402.903z"/>
    <path style="fill: none; fill-opacity:0; stroke-width: 0.01; stroke: #494936" d="M 785.8 402.903 L 788.936,400 L 817.298,400 L 814.162,402.903 L 785.8,402.903"/>
    <path style="fill: #b7b79d" d="M 785.8 402.903 L 814.389,402.903 L 814.389,425.472 L 785.8,425.472 L 785.8,402.903z"/>
    <path style="fill: none; fill-opacity:0; stroke-width: 0.01; stroke: #494936" d="M 785.8 402.903 L 814.377,402.903 L 814.377,425.466 L 785.8,425.466 L 785.8,402.903"/>
    <path style="fill: #ffffff" d="M 788.256 405.8 L 811.927,405.8 L 811.927,423.237 L 788.256,423.237 L 788.256,405.8z"/>
    <path style="fill: none; fill-opacity:0; stroke-width: 0.01; stroke: #494936" d="M 788.256 405.8 L 811.927,405.8 L 811.927,423.23 L 788.256,423.23 L 788.256,405.8"/>
    <path style="fill: #7a7a5a" d="M 814.162 425.258 L 817.298,422.128 L 817.298,400 L 814.162,402.903 L 814.162,425.258z"/>
    <path style="fill: none; fill-opacity:0; stroke-width: 0.01; stroke: #494936" d="M 814.162 425.258 L 817.298,422.128 L 817.298,400 L 814.162,402.903 L 814.162,425.258"/>
  </g>
  <text font-size="12.8" style="fill: #000000;text-anchor:start;font-family:sans-serif;font-style:normal;font-weight:normal" x="784" y="452">
    <tspan x="784" y="452">VM3</tspan>
  </text>
  <g>
    <path style="fill: #b7b79d" d="M 780 486.814 L 819.969,486.814 L 819.969,494.2 L 780,494.2 L 780,486.814z"/>
    <path style="fill: none; fill-opacity:0; stroke-width: 0.01; stroke: #494936" d="M 780 486.814 L 819.969,486.814 L 819.969,494.2 L 780,494.2 L 780,486.814"/>
    <path style="fill: #c9c9b6" d="M 780 486.814 L 784.238,482.796 L 824.207,482.796 L 819.969,486.814 L 780,486.814z"/>
    <path style="fill: none; fill-opacity:0; stroke-width: 0.01; stroke: #494936" d="M 780 486.814 L 784.238,482.796 L 824.207,482.796 L 819.969,486.814 L 780,486.814"/>
    <path style="fill: none; fill-opacity:0; stroke-width: 1.06; stroke: #000000" d="M 817.733 490.176 L 808.142,490.176"/>
    <path style="fill: #7a7a5a" d="M 819.969 494.2 L 824.207,489.95 L 824.207,482.796 L 819.969,486.814 L 819.969,494.2z"/>
    <path style="fill: none; fill-opacity:0; stroke-width: 0.01; stroke: #494936" d="M 819.969 494.2 L 824.207,489.95 L 824.207,482.796 L 819.969,486.814 L 819.969,494.2"/>
    <path style="fill: #c9c9b6" d="M 780.227 498.885 L 784.685,493.3 L 815.504,493.3 L 811.045,498.885 L 780.227,498.885z"/>
    <path style="fill: none; fill-opacity:0; stroke-width: 0.01; stroke: #494936" d="M 780.227 498.885 L 784.685,493.3 L 815.504,493.3 L 811.045,498.885 L 780.227,498.885"/>
    <path style="fill: #7a7a5a" d="M 811.045 500 L 815.504,495.315 L 815.504,493.3 L 811.045,498.885 L 811.045,500z"/>
    <path style="fill: none; fill-opacity:0; stroke-width: 0.01; stroke: #494936" d="M 811.045 500 L 815.504,495.315 L 815.504,493.3 L 811.045,498.885 L 811.045,500"/>
    <path style="fill: #b7b79d" d="M 780.227 498.885 L 811.045,498.885 L 811.045,500 L 780.227,500 L 780.227,498.885z"/>
    <path style="fill: none; fill-opacity:0; stroke-width: 0.01; stroke: #494936" d="M 780.227 498.885 L 811.045,498.885 L 811.045,500 L 780.227,500 L 780.227,498.885"/>
    <path style="fill: #000000" d="M 786.026 485.926 L 789.383,482.796 L 817.733,482.796 L 814.616,485.926 L 786.026,485.926z"/>
    <path style="fill: none; fill-opacity:0; stroke-width: 0.01; stroke: #000000" d="M 786.026 485.926 L 789.383,482.796 L 817.733,482.796 L 814.616,485.926 L 786.026,485.926"/>
    <path style="fill: #c9c9b6" d="M 785.8 462.903 L 788.936,460 L 817.298,460 L 814.162,462.903 L 785.8,462.903z"/>
    <path style="fill: none; fill-opacity:0; stroke-width: 0.01; stroke: #494936" d="M 785.8 462.903 L 788.936,460 L 817.298,460 L 814.162,462.903 L 785.8,462.903"/>
    <path style="fill: #b7b79d" d="M 785.8 462.903 L 814.389,462.903 L 814.389,485.472 L 785.8,485.472 L 785.8,462.903z"/>
    <path style="fill: none; fill-opacity:0; stroke-width: 0.01; stroke: #494936" d="M 785.8 462.903 L 814.377,462.903 L 814.377,485.466 L 785.8,485.466 L 785.8,462.903"/>
    <path style="fill: #ffffff" d="M 788.256 465.8 L 811.927,465.8 L 811.927,483.237 L 788.256,483.237 L 788.256,465.8z"/>
    <path style="fill: none; fill-opacity:0; stroke-width: 0.01; stroke: #494936" d="M 788.256 465.8 L 811.927,465.8 L 811.927,483.23 L 788.256,483.23 L 788.256,465.8"/>
    <path style="fill: #7a7a5a" d="M 814.162 485.258 L 817.298,482.128 L 817.298,460 L 814.162,462.903 L 814.162,485.258z"/>
    <path style="fill: none; fill-opacity:0; stroke-width: 0.01; stroke: #494936" d="M 814.162 485.258 L 817.298,482.128 L 817.298,460 L 814.162,462.903 L 814.162,485.258"/>
  </g>
  <text font-size="12.8" style="fill: #000000;text-anchor:start;font-family:sans-serif;font-style:normal;font-weight:normal" x="784" y="512">
    <tspan x="784" y="512">VM4</tspan>
  </text>
  <g>
    <path style="fill: #b7b79d" d="M 714 526.828 L 714,537.118 L 720.082,537.118 L 720.082,526.828 L 714,526.828z"/>
    <path style="fill: none; fill-opacity:0; stroke-width: 0.01; stroke: #494936" d="M 714 526.828 L 714,537.118 L 720.082,537.118 L 720.082,526.828 L 714,526.828"/>
    <path style="fill: #c9c9b6" d="M 714 526.828 L 714.824,526 L 720.904,526 L 720.082,526.828 L 714,526.828z"/>
    <path style="fill: none; fill-opacity:0; stroke-width: 0.01; stroke: #494936" d="M 714 526.828 L 714.824,526 L 720.864,526"/>
    <path style="fill: none; fill-opacity:0; stroke-width: 0.01; stroke: #494936" d="M 720.864 526.042 L 720.082,526.828 L 714,526.828"/>
    <path style="fill: #c9c9b6" d="M 714.375 527.426 L 717.153,527.426 L 717.153,528.776 L 714.375,528.776 L 714.375,527.426z"/>
    <path style="fill: none; fill-opacity:0; stroke-width: 0.01; stroke: #626248" d="M 714.375 527.426 L 717.151,527.426 L 717.151,528.774 L 714.375,528.774 L 714.375,527.426"/>
    <path style="fill: none; fill-opacity:0; stroke-width: 0.3; stroke: #ecece7" d="M 714.75 528.103 L 716.698,528.103"/>
    <path style="fill: #7a7a5a" d="M 720.082 537.118 L 720.904,536.288 L 720.904,526 L 720.082,526.828 L 720.082,537.118z"/>
    <path style="fill: none; fill-opacity:0; stroke-width: 0.01; stroke: #494936" d="M 720.082 537.118 L 720.864,536.33"/>
    <path style="fill: none; fill-opacity:0; stroke-width: 0.01; stroke: #494936" d="M 720.864 526.042 L 720.082,526.828 L 720.082,537.118"/>
    <path style="fill: none; fill-opacity:0; stroke-width: 0.3; stroke: #ecece7" d="M 714.076 536.439 L 720.08,536.439"/>
    <path style="fill: none; fill-opacity:0; stroke-width: 0.3; stroke: #000000" d="M 714.076 530.958 L 720.08,530.958"/>
    <path style="fill: none; fill-opacity:0; stroke-width: 0.3; stroke: #494936" d="M 714 536.365 L 720.075,536.365"/>
    <path style="fill: none; fill-opacity:0; stroke-width: 0.3; stroke: #000000" d="M 714 530.881 L 720.075,530.881"/>
    <path style="fill: none; fill-opacity:0; stroke-width: 0.01; stroke: #ecece7" d="M 714.375 528.703 L 714.375,527.426 L 717.076,527.426"/>
  </g>
  <text font-size="12.8" style="fill: #000000;text-anchor:start;font-family:sans-serif;font-style:normal;font-weight:normal" x="644" y="536">
    <tspan x="644" y="536">Machine 1</tspan>
  </text>
  <text font-size="12.8" style="fill: #000000;text-anchor:start;font-family:sans-serif;font-style:normal;font-weight:normal" x="772" y="536">
    <tspan x="772" y="536">Machine 2</tspan>
  </text>
  <g>
    <polyline style="fill: none; fill-opacity:0; stroke-width: 1; stroke-dasharray: 4; stroke: #000000" points="704.118,424 720,424 720,444 764,444 764,424 775.882,424 "/>
    <polygon style="fill: #000000" points="701.118,424 705.118,422 704.118,424 705.118,426 "/>
    <polygon style="fill: none; fill-opacity:0; stroke-width: 1; stroke: #000000" points="701.118,424 705.118,422 704.118,424 705.118,426 "/>
    <polygon style="fill: #000000" points="778.882,424 774.882,426 775.882,424 774.882,422 "/>
    <polygon style="fill: none; fill-opacity:0; stroke-width: 1; stroke: #000000" points="778.882,424 774.882,426 775.882,424 774.882,422 "/>
  </g>
  <g>
    <polyline style="fill: none; fill-opacity:0; stroke-width: 1; stroke-dasharray: 4; stroke: #000000" points="704.118,488 720,488 720,472 764,472 764,488 775.882,488 "/>
    <polygon style="fill: #000000" points="701.118,488 705.118,486 704.118,488 705.118,490 "/>
    <polygon style="fill: none; fill-opacity:0; stroke-width: 1; stroke: #000000" points="701.118,488 705.118,486 704.118,488 705.118,490 "/>
    <polygon style="fill: #000000" points="778.882,488 774.882,490 775.882,488 774.882,486 "/>
    <polygon style="fill: none; fill-opacity:0; stroke-width: 1; stroke: #000000" points="778.882,488 774.882,490 775.882,488 774.882,486 "/>
  </g>
  <g>
    <line style="fill: none; fill-opacity:0; stroke-width: 1; stroke: #000000" x1="728.118" y1="460" x2="755.882" y2="460"/>
    <polygon style="fill: #000000" points="725.118,460 729.118,458 728.118,460 729.118,462 "/>
    <polygon style="fill: none; fill-opacity:0; stroke-width: 1; stroke: #000000" points="725.118,460 729.118,458 728.118,460 729.118,462 "/>
    <polygon style="fill: #000000" points="758.882,460 754.882,462 755.882,460 754.882,458 "/>
    <polygon style="fill: none; fill-opacity:0; stroke-width: 1; stroke: #000000" points="758.882,460 754.882,462 755.882,460 754.882,458 "/>
  </g>
  <g>
    <path style="fill: #b7b79d" d="M 842 526.828 L 842,537.118 L 848.082,537.118 L 848.082,526.828 L 842,526.828z"/>
    <path style="fill: none; fill-opacity:0; stroke-width: 0.01; stroke: #494936" d="M 842 526.828 L 842,537.118 L 848.082,537.118 L 848.082,526.828 L 842,526.828"/>
    <path style="fill: #c9c9b6" d="M 842 526.828 L 842.824,526 L 848.904,526 L 848.082,526.828 L 842,526.828z"/>
    <path style="fill: none; fill-opacity:0; stroke-width: 0.01; stroke: #494936" d="M 842 526.828 L 842.824,526 L 848.864,526"/>
    <path style="fill: none; fill-opacity:0; stroke-width: 0.01; stroke: #494936" d="M 848.864 526.042 L 848.082,526.828 L 842,526.828"/>
    <path style="fill: #c9c9b6" d="M 842.375 527.426 L 845.153,527.426 L 845.153,528.776 L 842.375,528.776 L 842.375,527.426z"/>
    <path style="fill: none; fill-opacity:0; stroke-width: 0.01; stroke: #626248" d="M 842.375 527.426 L 845.151,527.426 L 845.151,528.774 L 842.375,528.774 L 842.375,527.426"/>
    <path style="fill: none; fill-opacity:0; stroke-width: 0.3; stroke: #ecece7" d="M 842.75 528.103 L 844.698,528.103"/>
    <path style="fill: #7a7a5a" d="M 848.082 537.118 L 848.904,536.288 L 848.904,526 L 848.082,526.828 L 848.082,537.118z"/>
    <path style="fill: none; fill-opacity:0; stroke-width: 0.01; stroke: #494936" d="M 848.082 537.118 L 848.864,536.33"/>
    <path style="fill: none; fill-opacity:0; stroke-width: 0.01; stroke: #494936" d="M 848.864 526.042 L 848.082,526.828 L 848.082,537.118"/>
    <path style="fill: none; fill-opacity:0; stroke-width: 0.3; stroke: #ecece7" d="M 842.076 536.439 L 848.08,536.439"/>
    <path style="fill: none; fill-opacity:0; stroke-width: 0.3; stroke: #000000" d="M 842.076 530.958 L 848.08,530.958"/>
    <path style="fill: none; fill-opacity:0; stroke-width: 0.3; stroke: #494936" d="M 842 536.365 L 848.075,536.365"/>
    <path style="fill: none; fill-opacity:0; stroke-width: 0.3; stroke: #000000" d="M 842 530.881 L 848.075,530.881"/>
    <path style="fill: none; fill-opacity:0; stroke-width: 0.01; stroke: #ecece7" d="M 842.375 528.703 L 842.375,527.426 L 845.076,527.426"/>
  </g>
</svg>
