<?xml version="1.0" encoding="UTF-8" standalone="no"?>
<!-- Created by diasvg.py -->

<svg
   xmlns:dc="http://purl.org/dc/elements/1.1/"
   xmlns:cc="http://creativecommons.org/ns#"
   xmlns:rdf="http://www.w3.org/1999/02/22-rdf-syntax-ns#"
   xmlns:svg="http://www.w3.org/2000/svg"
   xmlns="http://www.w3.org/2000/svg"
   xmlns:sodipodi="http://sodipodi.sourceforge.net/DTD/sodipodi-0.dtd"
   xmlns:inkscape="http://www.inkscape.org/namespaces/inkscape"
   width="10.850cm"
   height="7.250cm"
   viewBox="31.775 19.775 42.625 27.025"
   version="1.1"
   id="svg1113"
   sodipodi:docname="quickstart.svg"
   inkscape:version="0.92.2 5c3e80d, 2017-08-06">
  <metadata
     id="metadata1119">
    <rdf:RDF>
      <cc:Work
         rdf:about="">
        <dc:format>image/svg+xml</dc:format>
        <dc:type
           rdf:resource="http://purl.org/dc/dcmitype/StillImage" />
      </cc:Work>
    </rdf:RDF>
  </metadata>
  <defs
     id="defs1117" />
  <sodipodi:namedview
     pagecolor="#ffffff"
     bordercolor="#666666"
     borderopacity="1"
     objecttolerance="10"
     gridtolerance="10"
     guidetolerance="10"
     inkscape:pageopacity="0"
     inkscape:pageshadow="2"
     inkscape:window-width="1920"
     inkscape:window-height="1056"
     id="namedview1115"
     showgrid="false"
     showguides="true"
     inkscape:guide-bbox="true"
     inkscape:zoom="1.0722116"
     inkscape:cx="-85.058929"
     inkscape:cy="270.76668"
     inkscape:window-x="0"
     inkscape:window-y="0"
     inkscape:window-maximized="1"
     inkscape:current-layer="svg1113">
    <sodipodi:guide
       position="5.8408177,19.603972"
       orientation="0,1"
       id="guide1123"
       inkscape:locked="false" />
  </sodipodi:namedview>
  <rect
     x="56.240669"
     y="19.868195"
     width="17.147772"
     height="26.839991"
     id="rect815"
     style="fill:#d8e5e5;stroke:none;stroke-width:0" />
  <rect
     x="56.240669"
     y="19.868195"
     width="17.147772"
     height="26.839991"
     id="rect817"
     style="fill:none;stroke:#000000;stroke-width:0.18638882" />
  <rect
     x="33.128452"
     y="19.868195"
     width="16.402216"
     height="26.839991"
     id="rect819"
     style="fill:#d8e5e5;stroke:none;stroke-width:0" />
  <rect
     x="33.128452"
     y="19.868195"
     width="16.402216"
     height="26.839991"
     id="rect821"
     style="fill:none;stroke:#000000;stroke-width:0.18638882" />
  <path
     d="m 36.856232,25.6127 h 7.448097 v 1.37555 H 36.856232 V 25.6127"
     id="path823"
     inkscape:connector-curvature="0"
     style="fill:#b7b79d;stroke:none;stroke-width:0.00372778" />
  <path
     d="m 36.856232,25.6127 h 7.448097 v 1.37555 H 36.856232 V 25.6127"
     id="path825"
     inkscape:connector-curvature="0"
     style="fill:none;stroke:#494936;stroke-width:0.00372778" />
  <path
     d="m 36.856232,25.6127 0.790289,-0.749283 h 7.448097 L 44.304329,25.6127 h -7.448097"
     id="path827"
     inkscape:connector-curvature="0"
     style="fill:#c9c9b6;stroke:none;stroke-width:0.00372778" />
  <path
     d="m 36.856232,25.6127 0.790289,-0.749283 h 7.448097 L 44.304329,25.6127 h -7.448097"
     id="path829"
     inkscape:connector-curvature="0"
     style="fill:none;stroke:#494936;stroke-width:0.00372778" />
  <path
     d="M 43.890546,26.238966 H 42.101213"
     id="path831"
     inkscape:connector-curvature="0"
     style="fill:none;stroke:#000000;stroke-width:0.19757216" />
  <path
     d="m 44.304329,26.98825 0.790289,-0.794017 V 24.863417 L 44.304329,25.6127 v 1.37555"
     id="path833"
     inkscape:connector-curvature="0"
     style="fill:#7a7a5a;stroke:none;stroke-width:0.00372778" />
  <path
     d="m 44.304329,26.98825 0.790289,-0.794017 V 24.863417 L 44.304329,25.6127 v 1.37555"
     id="path835"
     inkscape:connector-curvature="0"
     style="fill:none;stroke:#494936;stroke-width:0.00372778" />
  <path
     d="M 36.897237,27.860549 37.728532,26.8205 h 5.744503 l -0.831294,1.040049 h -5.744504"
     id="path837"
     inkscape:connector-curvature="0"
     style="fill:#c9c9b6;stroke:none;stroke-width:0.00372778" />
  <path
     d="M 36.897237,27.860549 37.728532,26.8205 h 5.744503 l -0.831294,1.040049 h -5.744504"
     id="path839"
     inkscape:connector-curvature="0"
     style="fill:none;stroke:#494936;stroke-width:0.00372778" />
  <path
     d="m 42.641741,28.069305 0.831294,-0.8723 V 26.8205 l -0.831294,1.040049 v 0.208756"
     id="path841"
     inkscape:connector-curvature="0"
     style="fill:#7a7a5a;stroke:none;stroke-width:0.00372778" />
  <path
     d="m 42.641741,28.069305 0.831294,-0.8723 V 26.8205 l -0.831294,1.040049 v 0.208756"
     id="path843"
     inkscape:connector-curvature="0"
     style="fill:none;stroke:#494936;stroke-width:0.00372778" />
  <path
     d="m 36.897237,27.860549 h 5.744504 v 0.208756 h -5.744504 v -0.208756"
     id="path845"
     inkscape:connector-curvature="0"
     style="fill:#b7b79d;stroke:none;stroke-width:0.00372778" />
  <path
     d="m 36.897237,27.860549 h 5.744504 v 0.208756 h -5.744504 v -0.208756"
     id="path847"
     inkscape:connector-curvature="0"
     style="fill:none;stroke:#494936;stroke-width:0.00372778" />
  <path
     d="m 37.978293,25.44495 0.626266,-0.581533 h 5.285987 l -0.581533,0.581533 h -5.33072"
     id="path849"
     inkscape:connector-curvature="0"
     style="fill:#000000;stroke:none;stroke-width:0.00372778" />
  <path
     d="m 37.978293,25.44495 0.626266,-0.581533 h 5.285987 l -0.581533,0.581533 h -5.33072"
     id="path851"
     inkscape:connector-curvature="0"
     style="fill:none;stroke:#000000;stroke-width:0.00372778" />
  <path
     d="m 37.937287,21.154279 0.585261,-0.540527 h 5.285987 l -0.585261,0.540527 h -5.285987"
     id="path853"
     inkscape:connector-curvature="0"
     style="fill:#c9c9b6;stroke:none;stroke-width:0.00372778" />
  <path
     d="m 37.937287,21.154279 0.585261,-0.540527 h 5.285987 l -0.585261,0.540527 h -5.285987"
     id="path855"
     inkscape:connector-curvature="0"
     style="fill:none;stroke:#494936;stroke-width:0.00372778" />
  <path
     d="m 37.937287,21.154279 h 5.326993 v 4.20866 h -5.326993 v -4.20866"
     id="path857"
     inkscape:connector-curvature="0"
     style="fill:#b7b79d;stroke:none;stroke-width:0.00372778" />
  <path
     d="m 37.937287,21.154279 h 5.326993 v 4.204932 h -5.326993 v -4.204932"
     id="path859"
     inkscape:connector-curvature="0"
     style="fill:none;stroke:#494936;stroke-width:0.00372778" />
  <path
     d="m 38.395804,21.694807 h 4.409959 v 3.250621 h -4.409959 v -3.250621"
     id="path861"
     inkscape:connector-curvature="0"
     style="fill:#ffffff;stroke:none;stroke-width:0.00372778" />
  <path
     d="m 38.395804,21.694807 h 4.409959 v 3.250621 h -4.409959 v -3.250621"
     id="path863"
     inkscape:connector-curvature="0"
     style="fill:none;stroke:#494936;stroke-width:0.00372778" />
  <path
     d="m 43.223274,25.321933 0.585261,-0.58526 v -4.122921 l -0.585261,0.540527 v 4.167654"
     id="path865"
     inkscape:connector-curvature="0"
     style="fill:#7a7a5a;stroke:none;stroke-width:0.00372778" />
  <path
     d="m 43.223274,25.321933 0.585261,-0.58526 v -4.122921 l -0.585261,0.540527 v 4.167654"
     id="path867"
     inkscape:connector-curvature="0"
     style="fill:none;stroke:#494936;stroke-width:0.00372778" />
  <text
     x="37.330746"
     y="30.848043"
     font-size="0.80"
     font-style="normal"
     font-weight="400"
     id="text869"
     style="font-style:normal;font-weight:400;font-size:2.98222113px;font-family:sans;text-anchor:start;fill:#000000;stroke-width:3.72777653">VM1</text>
  <path
     d="m 36.856232,36.796029 h 7.448097 v 1.37555 h -7.448097 v -1.37555"
     id="path871"
     inkscape:connector-curvature="0"
     style="fill:#b7b79d;stroke:none;stroke-width:0.00372778" />
  <path
     d="m 36.856232,36.796029 h 7.448097 v 1.37555 h -7.448097 v -1.37555"
     id="path873"
     inkscape:connector-curvature="0"
     style="fill:none;stroke:#494936;stroke-width:0.00372778" />
  <path
     d="m 36.856232,36.796029 0.790289,-0.749283 h 7.448097 l -0.790289,0.749283 h -7.448097"
     id="path875"
     inkscape:connector-curvature="0"
     style="fill:#c9c9b6;stroke:none;stroke-width:0.00372778" />
  <path
     d="m 36.856232,36.796029 0.790289,-0.749283 h 7.448097 l -0.790289,0.749283 h -7.448097"
     id="path877"
     inkscape:connector-curvature="0"
     style="fill:none;stroke:#494936;stroke-width:0.00372778" />
  <path
     d="M 43.890546,37.422296 H 42.101213"
     id="path879"
     inkscape:connector-curvature="0"
     style="fill:none;stroke:#000000;stroke-width:0.19757216" />
  <path
     d="m 44.304329,38.171579 0.790289,-0.794017 v -1.330816 l -0.790289,0.749283 v 1.37555"
     id="path881"
     inkscape:connector-curvature="0"
     style="fill:#7a7a5a;stroke:none;stroke-width:0.00372778" />
  <path
     d="m 44.304329,38.171579 0.790289,-0.794017 v -1.330816 l -0.790289,0.749283 v 1.37555"
     id="path883"
     inkscape:connector-curvature="0"
     style="fill:none;stroke:#494936;stroke-width:0.00372778" />
  <path
     d="m 36.897237,39.043879 0.831295,-1.04005 h 5.744503 l -0.831294,1.04005 h -5.744504"
     id="path885"
     inkscape:connector-curvature="0"
     style="fill:#c9c9b6;stroke:none;stroke-width:0.00372778" />
  <path
     d="m 36.897237,39.043879 0.831295,-1.04005 h 5.744503 l -0.831294,1.04005 h -5.744504"
     id="path887"
     inkscape:connector-curvature="0"
     style="fill:none;stroke:#494936;stroke-width:0.00372778" />
  <path
     d="m 42.641741,39.252634 0.831294,-0.8723 v -0.376505 l -0.831294,1.04005 v 0.208755"
     id="path889"
     inkscape:connector-curvature="0"
     style="fill:#7a7a5a;stroke:none;stroke-width:0.00372778" />
  <path
     d="m 42.641741,39.252634 0.831294,-0.8723 v -0.376505 l -0.831294,1.04005 v 0.208755"
     id="path891"
     inkscape:connector-curvature="0"
     style="fill:none;stroke:#494936;stroke-width:0.00372778" />
  <path
     d="m 36.897237,39.043879 h 5.744504 v 0.208755 h -5.744504 v -0.208755"
     id="path893"
     inkscape:connector-curvature="0"
     style="fill:#b7b79d;stroke:none;stroke-width:0.00372778" />
  <path
     d="m 36.897237,39.043879 h 5.744504 v 0.208755 h -5.744504 v -0.208755"
     id="path895"
     inkscape:connector-curvature="0"
     style="fill:none;stroke:#494936;stroke-width:0.00372778" />
  <path
     d="m 37.978293,36.628279 0.626266,-0.581533 h 5.285987 l -0.581533,0.581533 h -5.33072"
     id="path897"
     inkscape:connector-curvature="0"
     style="fill:#000000;stroke:none;stroke-width:0.00372778" />
  <path
     d="m 37.978293,36.628279 0.626266,-0.581533 h 5.285987 l -0.581533,0.581533 h -5.33072"
     id="path899"
     inkscape:connector-curvature="0"
     style="fill:none;stroke:#000000;stroke-width:0.00372778" />
  <path
     d="m 37.937287,32.337609 0.585261,-0.540528 h 5.285987 l -0.585261,0.540528 h -5.285987"
     id="path901"
     inkscape:connector-curvature="0"
     style="fill:#c9c9b6;stroke:none;stroke-width:0.00372778" />
  <path
     d="m 37.937287,32.337609 0.585261,-0.540528 h 5.285987 l -0.585261,0.540528 h -5.285987"
     id="path903"
     inkscape:connector-curvature="0"
     style="fill:none;stroke:#494936;stroke-width:0.00372778" />
  <path
     d="m 37.937287,32.337609 h 5.326993 v 4.208659 h -5.326993 v -4.208659"
     id="path905"
     inkscape:connector-curvature="0"
     style="fill:#b7b79d;stroke:none;stroke-width:0.00372778" />
  <path
     d="m 37.937287,32.337609 h 5.326993 v 4.204932 h -5.326993 v -4.204932"
     id="path907"
     inkscape:connector-curvature="0"
     style="fill:none;stroke:#494936;stroke-width:0.00372778" />
  <path
     d="m 38.395804,32.878136 h 4.409959 v 3.250621 h -4.409959 v -3.250621"
     id="path909"
     inkscape:connector-curvature="0"
     style="fill:#ffffff;stroke:none;stroke-width:0.00372778" />
  <path
     d="m 38.395804,32.878136 h 4.409959 v 3.250621 h -4.409959 v -3.250621"
     id="path911"
     inkscape:connector-curvature="0"
     style="fill:none;stroke:#494936;stroke-width:0.00372778" />
  <path
     d="m 43.223274,36.505263 0.585261,-0.585261 v -4.122921 l -0.585261,0.540528 v 4.167654"
     id="path913"
     inkscape:connector-curvature="0"
     style="fill:#7a7a5a;stroke:none;stroke-width:0.00372778" />
  <path
     d="m 43.223274,36.505263 0.585261,-0.585261 v -4.122921 l -0.585261,0.540528 v 4.167654"
     id="path915"
     inkscape:connector-curvature="0"
     style="fill:none;stroke:#494936;stroke-width:0.00372778" />
  <text
     x="37.330746"
     y="42.031372"
     font-size="0.80"
     font-style="normal"
     font-weight="400"
     id="text917"
     style="font-style:normal;font-weight:400;font-size:2.98222113px;font-family:sans;text-anchor:start;fill:#000000;stroke-width:3.72777653">VM2</text>
  <path
     d="m 59.968446,25.6127 h 7.448097 v 1.37555 H 59.968446 V 25.6127"
     id="path919"
     inkscape:connector-curvature="0"
     style="fill:#b7b79d;stroke:none;stroke-width:0.00372778" />
  <path
     d="m 59.968446,25.6127 h 7.448097 v 1.37555 H 59.968446 V 25.6127"
     id="path921"
     inkscape:connector-curvature="0"
     style="fill:none;stroke:#494936;stroke-width:0.00372778" />
  <path
     d="m 59.968446,25.6127 0.790289,-0.749283 h 7.448097 L 67.416543,25.6127 h -7.448097"
     id="path923"
     inkscape:connector-curvature="0"
     style="fill:#c9c9b6;stroke:none;stroke-width:0.00372778" />
  <path
     d="m 59.968446,25.6127 0.790289,-0.749283 h 7.448097 L 67.416543,25.6127 h -7.448097"
     id="path925"
     inkscape:connector-curvature="0"
     style="fill:none;stroke:#494936;stroke-width:0.00372778" />
  <path
     d="M 67.00276,26.238966 H 65.213427"
     id="path927"
     inkscape:connector-curvature="0"
     style="fill:none;stroke:#000000;stroke-width:0.19757216" />
  <path
     d="m 67.416543,26.98825 0.790289,-0.794017 V 24.863417 L 67.416543,25.6127 v 1.37555"
     id="path929"
     inkscape:connector-curvature="0"
     style="fill:#7a7a5a;stroke:none;stroke-width:0.00372778" />
  <path
     d="m 67.416543,26.98825 0.790289,-0.794017 V 24.863417 L 67.416543,25.6127 v 1.37555"
     id="path931"
     inkscape:connector-curvature="0"
     style="fill:none;stroke:#494936;stroke-width:0.00372778" />
  <path
     d="M 60.009451,27.860549 60.840746,26.8205 h 5.744503 l -0.831294,1.040049 h -5.744504"
     id="path933"
     inkscape:connector-curvature="0"
     style="fill:#c9c9b6;stroke:none;stroke-width:0.00372778" />
  <path
     d="M 60.009451,27.860549 60.840746,26.8205 h 5.744503 l -0.831294,1.040049 h -5.744504"
     id="path935"
     inkscape:connector-curvature="0"
     style="fill:none;stroke:#494936;stroke-width:0.00372778" />
  <path
     d="m 65.753955,28.069305 0.831294,-0.8723 V 26.8205 l -0.831294,1.040049 v 0.208756"
     id="path937"
     inkscape:connector-curvature="0"
     style="fill:#7a7a5a;stroke:none;stroke-width:0.00372778" />
  <path
     d="m 65.753955,28.069305 0.831294,-0.8723 V 26.8205 l -0.831294,1.040049 v 0.208756"
     id="path939"
     inkscape:connector-curvature="0"
     style="fill:none;stroke:#494936;stroke-width:0.00372778" />
  <path
     d="m 60.009451,27.860549 h 5.744504 v 0.208756 h -5.744504 v -0.208756"
     id="path941"
     inkscape:connector-curvature="0"
     style="fill:#b7b79d;stroke:none;stroke-width:0.00372778" />
  <path
     d="m 60.009451,27.860549 h 5.744504 v 0.208756 h -5.744504 v -0.208756"
     id="path943"
     inkscape:connector-curvature="0"
     style="fill:none;stroke:#494936;stroke-width:0.00372778" />
  <path
     d="m 61.090507,25.44495 0.626266,-0.581533 h 5.285987 l -0.581533,0.581533 h -5.33072"
     id="path945"
     inkscape:connector-curvature="0"
     style="fill:#000000;stroke:none;stroke-width:0.00372778" />
  <path
     d="m 61.090507,25.44495 0.626266,-0.581533 h 5.285987 l -0.581533,0.581533 h -5.33072"
     id="path947"
     inkscape:connector-curvature="0"
     style="fill:none;stroke:#000000;stroke-width:0.00372778" />
  <path
     d="m 61.049501,21.154279 0.585261,-0.540527 h 5.285987 l -0.585261,0.540527 h -5.285987"
     id="path949"
     inkscape:connector-curvature="0"
     style="fill:#c9c9b6;stroke:none;stroke-width:0.00372778" />
  <path
     d="m 61.049501,21.154279 0.585261,-0.540527 h 5.285987 l -0.585261,0.540527 h -5.285987"
     id="path951"
     inkscape:connector-curvature="0"
     style="fill:none;stroke:#494936;stroke-width:0.00372778" />
  <path
     d="m 61.049501,21.154279 h 5.326993 v 4.20866 h -5.326993 v -4.20866"
     id="path953"
     inkscape:connector-curvature="0"
     style="fill:#b7b79d;stroke:none;stroke-width:0.00372778" />
  <path
     d="m 61.049501,21.154279 h 5.326993 v 4.204932 h -5.326993 v -4.204932"
     id="path955"
     inkscape:connector-curvature="0"
     style="fill:none;stroke:#494936;stroke-width:0.00372778" />
  <path
     d="m 61.508018,21.694807 h 4.409959 v 3.250621 h -4.409959 v -3.250621"
     id="path957"
     inkscape:connector-curvature="0"
     style="fill:#ffffff;stroke:none;stroke-width:0.00372778" />
  <path
     d="m 61.508018,21.694807 h 4.409959 v 3.250621 h -4.409959 v -3.250621"
     id="path959"
     inkscape:connector-curvature="0"
     style="fill:none;stroke:#494936;stroke-width:0.00372778" />
  <path
     d="m 66.335488,25.321933 0.585261,-0.58526 v -4.122921 l -0.585261,0.540527 v 4.167654"
     id="path961"
     inkscape:connector-curvature="0"
     style="fill:#7a7a5a;stroke:none;stroke-width:0.00372778" />
  <path
     d="m 66.335488,25.321933 0.585261,-0.58526 v -4.122921 l -0.585261,0.540527 v 4.167654"
     id="path963"
     inkscape:connector-curvature="0"
     style="fill:none;stroke:#494936;stroke-width:0.00372778" />
  <text
     x="60.442963"
     y="30.848043"
     font-size="0.80"
     font-style="normal"
     font-weight="400"
     id="text965"
     style="font-style:normal;font-weight:400;font-size:2.98222113px;font-family:sans;text-anchor:start;fill:#000000;stroke-width:3.72777653">VM3</text>
  <path
     d="m 59.968446,36.796029 h 7.448097 v 1.37555 h -7.448097 v -1.37555"
     id="path967"
     inkscape:connector-curvature="0"
     style="fill:#b7b79d;stroke:none;stroke-width:0.00372778" />
  <path
     d="m 59.968446,36.796029 h 7.448097 v 1.37555 h -7.448097 v -1.37555"
     id="path969"
     inkscape:connector-curvature="0"
     style="fill:none;stroke:#494936;stroke-width:0.00372778" />
  <path
     d="m 59.968446,36.796029 0.790289,-0.749283 h 7.448097 l -0.790289,0.749283 h -7.448097"
     id="path971"
     inkscape:connector-curvature="0"
     style="fill:#c9c9b6;stroke:none;stroke-width:0.00372778" />
  <path
     d="m 59.968446,36.796029 0.790289,-0.749283 h 7.448097 l -0.790289,0.749283 h -7.448097"
     id="path973"
     inkscape:connector-curvature="0"
     style="fill:none;stroke:#494936;stroke-width:0.00372778" />
  <path
     d="M 67.00276,37.422296 H 65.213427"
     id="path975"
     inkscape:connector-curvature="0"
     style="fill:none;stroke:#000000;stroke-width:0.19757216" />
  <path
     d="m 67.416543,38.171579 0.790289,-0.794017 v -1.330816 l -0.790289,0.749283 v 1.37555"
     id="path977"
     inkscape:connector-curvature="0"
     style="fill:#7a7a5a;stroke:none;stroke-width:0.00372778" />
  <path
     d="m 67.416543,38.171579 0.790289,-0.794017 v -1.330816 l -0.790289,0.749283 v 1.37555"
     id="path979"
     inkscape:connector-curvature="0"
     style="fill:none;stroke:#494936;stroke-width:0.00372778" />
  <path
     d="m 60.009451,39.043879 0.831295,-1.04005 h 5.744503 l -0.831294,1.04005 h -5.744504"
     id="path981"
     inkscape:connector-curvature="0"
     style="fill:#c9c9b6;stroke:none;stroke-width:0.00372778" />
  <path
     d="m 60.009451,39.043879 0.831295,-1.04005 h 5.744503 l -0.831294,1.04005 h -5.744504"
     id="path983"
     inkscape:connector-curvature="0"
     style="fill:none;stroke:#494936;stroke-width:0.00372778" />
  <path
     d="m 65.753955,39.252634 0.831294,-0.8723 v -0.376505 l -0.831294,1.04005 v 0.208755"
     id="path985"
     inkscape:connector-curvature="0"
     style="fill:#7a7a5a;stroke:none;stroke-width:0.00372778" />
  <path
     d="m 65.753955,39.252634 0.831294,-0.8723 v -0.376505 l -0.831294,1.04005 v 0.208755"
     id="path987"
     inkscape:connector-curvature="0"
     style="fill:none;stroke:#494936;stroke-width:0.00372778" />
  <path
     d="m 60.009451,39.043879 h 5.744504 v 0.208755 h -5.744504 v -0.208755"
     id="path989"
     inkscape:connector-curvature="0"
     style="fill:#b7b79d;stroke:none;stroke-width:0.00372778" />
  <path
     d="m 60.009451,39.043879 h 5.744504 v 0.208755 h -5.744504 v -0.208755"
     id="path991"
     inkscape:connector-curvature="0"
     style="fill:none;stroke:#494936;stroke-width:0.00372778" />
  <path
     d="m 61.090507,36.628279 0.626266,-0.581533 h 5.285987 l -0.581533,0.581533 h -5.33072"
     id="path993"
     inkscape:connector-curvature="0"
     style="fill:#000000;stroke:none;stroke-width:0.00372778" />
  <path
     d="m 61.090507,36.628279 0.626266,-0.581533 h 5.285987 l -0.581533,0.581533 h -5.33072"
     id="path995"
     inkscape:connector-curvature="0"
     style="fill:none;stroke:#000000;stroke-width:0.00372778" />
  <path
     d="m 61.049501,32.337609 0.585261,-0.540528 h 5.285987 l -0.585261,0.540528 h -5.285987"
     id="path997"
     inkscape:connector-curvature="0"
     style="fill:#c9c9b6;stroke:none;stroke-width:0.00372778" />
  <path
     d="m 61.049501,32.337609 0.585261,-0.540528 h 5.285987 l -0.585261,0.540528 h -5.285987"
     id="path999"
     inkscape:connector-curvature="0"
     style="fill:none;stroke:#494936;stroke-width:0.00372778" />
  <path
     d="m 61.049501,32.337609 h 5.326993 v 4.208659 h -5.326993 v -4.208659"
     id="path1001"
     inkscape:connector-curvature="0"
     style="fill:#b7b79d;stroke:none;stroke-width:0.00372778" />
  <path
     d="m 61.049501,32.337609 h 5.326993 v 4.204932 h -5.326993 v -4.204932"
     id="path1003"
     inkscape:connector-curvature="0"
     style="fill:none;stroke:#494936;stroke-width:0.00372778" />
  <path
     d="m 61.508018,32.878136 h 4.409959 v 3.250621 h -4.409959 v -3.250621"
     id="path1005"
     inkscape:connector-curvature="0"
     style="fill:#ffffff;stroke:none;stroke-width:0.00372778" />
  <path
     d="m 61.508018,32.878136 h 4.409959 v 3.250621 h -4.409959 v -3.250621"
     id="path1007"
     inkscape:connector-curvature="0"
     style="fill:none;stroke:#494936;stroke-width:0.00372778" />
  <path
     d="m 66.335488,36.505263 0.585261,-0.585261 v -4.122921 l -0.585261,0.540528 v 4.167654"
     id="path1009"
     inkscape:connector-curvature="0"
     style="fill:#7a7a5a;stroke:none;stroke-width:0.00372778" />
  <path
     d="m 66.335488,36.505263 0.585261,-0.585261 v -4.122921 l -0.585261,0.540528 v 4.167654"
     id="path1011"
     inkscape:connector-curvature="0"
     style="fill:none;stroke:#494936;stroke-width:0.00372778" />
  <text
     x="60.442963"
     y="42.031372"
     font-size="0.80"
     font-style="normal"
     font-weight="400"
     id="text1013"
     style="font-style:normal;font-weight:400;font-size:2.98222113px;font-family:sans;text-anchor:start;fill:#000000;stroke-width:3.72777653">VM4</text>
  <path
     d="m 47.666784,44.251582 v 1.919805 h 1.133244 v -1.919805 h -1.133244"
     id="path1015"
     inkscape:connector-curvature="0"
     style="fill:#b7b79d;stroke:none;stroke-width:0.00372778" />
  <path
     d="m 47.666784,44.251582 v 1.919805 h 1.133244 v -1.919805 h -1.133244"
     id="path1017"
     inkscape:connector-curvature="0"
     style="fill:none;stroke:#494936;stroke-width:0.00372778" />
  <path
     d="m 47.666784,44.251582 0.152838,-0.152839 h 1.133245 l -0.152839,0.152839 h -1.133244"
     id="path1019"
     inkscape:connector-curvature="0"
     style="fill:#c9c9b6;stroke:none;stroke-width:0.00372778" />
  <path
     d="m 47.666784,44.251582 0.152838,-0.152839 h 1.125789"
     id="path1021"
     inkscape:connector-curvature="0"
     style="fill:none;stroke:#494936;stroke-width:0.00372778" />
  <path
     d="m 48.945411,44.106199 -0.145383,0.145383 h -1.133244"
     id="path1023"
     inkscape:connector-curvature="0"
     style="fill:none;stroke:#494936;stroke-width:0.00372778" />
  <path
     d="m 47.737611,44.363416 h 0.518161 v 0.253488 h -0.518161 v -0.253488"
     id="path1025"
     inkscape:connector-curvature="0"
     style="fill:#c9c9b6;stroke:none;stroke-width:0.00372778" />
  <path
     d="m 47.737611,44.363416 h 0.518161 v 0.253488 h -0.518161 v -0.253488"
     id="path1027"
     inkscape:connector-curvature="0"
     style="fill:none;stroke:#626248;stroke-width:0.00372778" />
  <path
     d="m 47.804711,44.49016 h 0.365322"
     id="path1029"
     inkscape:connector-curvature="0"
     style="fill:none;stroke:#ecece7;stroke-width:0.05591664" />
  <path
     d="m 48.800028,46.171387 0.152839,-0.156567 v -1.916077 l -0.152839,0.152839 v 1.919805"
     id="path1031"
     inkscape:connector-curvature="0"
     style="fill:#7a7a5a;stroke:none;stroke-width:0.00372778" />
  <path
     d="m 48.800028,46.171387 0.145383,-0.145383"
     id="path1033"
     inkscape:connector-curvature="0"
     style="fill:none;stroke:#494936;stroke-width:0.00372778" />
  <path
     d="m 48.945411,44.106199 -0.145383,0.145383 v 1.919805"
     id="path1035"
     inkscape:connector-curvature="0"
     style="fill:none;stroke:#494936;stroke-width:0.00372778" />
  <path
     d="m 47.681695,46.044643 h 1.118333"
     id="path1037"
     inkscape:connector-curvature="0"
     style="fill:none;stroke:#ecece7;stroke-width:0.05591664" />
  <path
     d="m 47.681695,45.023232 h 1.118333"
     id="path1039"
     inkscape:connector-curvature="0"
     style="fill:none;stroke:#000000;stroke-width:0.05591664" />
  <path
     d="m 47.666784,46.029732 h 1.133244"
     id="path1041"
     inkscape:connector-curvature="0"
     style="fill:none;stroke:#494936;stroke-width:0.05591664" />
  <path
     d="m 47.666784,45.008321 h 1.133244"
     id="path1043"
     inkscape:connector-curvature="0"
     style="fill:none;stroke:#000000;stroke-width:0.05591664" />
  <path
     d="m 47.737611,44.601993 v -0.238577 h 0.50325"
     id="path1045"
     inkscape:connector-curvature="0"
     style="fill:none;stroke:#ecece7;stroke-width:0.00372778" />
  <text
     x="34.122852"
     y="45.972809"
     font-size="0.80"
     font-style="normal"
     font-weight="400"
     id="text1047"
     style="font-style:normal;font-weight:400;font-size:2.5199635px;font-family:sans;text-anchor:start;fill:#000000;stroke-width:3.14995432">Machine A</text>
  <text
     x="57.563076"
     y="46.103104"
     font-size="0.80"
     font-style="normal"
     font-weight="400"
     id="text1049"
     style="font-style:normal;font-weight:400;font-size:2.63201141px;font-family:sans;text-anchor:start;fill:#000000;stroke-width:3.29001403">Machine B</text>
  <polyline
     points="35.206,21.200 36.000,21.200 36.000,22.200 38.200,22.200 38.200,21.200 38.794,21.200 "
     id="polyline1051"
     transform="matrix(3.7277764,0,0,3.7277764,-85.414836,-53.941777)"
     style="fill:none;stroke:#000000;stroke-width:0.05;stroke-dasharray:0.1, 0.1" />
  <polygon
     points="35.206,21.2 35.256,21.3 35.056,21.2 35.256,21.1 "
     id="polygon1053"
     transform="matrix(3.7277764,0,0,3.7277764,-85.414836,-53.941777)"
     style="fill:#000000;stroke:none;stroke-width:0.05" />
  <polygon
     points="35.206,21.2 35.256,21.3 35.056,21.2 35.256,21.1 "
     id="polygon1055"
     transform="matrix(3.7277764,0,0,3.7277764,-85.414836,-53.941777)"
     style="fill:none;stroke:#000000;stroke-width:0.05" />
  <polygon
     points="38.794,21.2 38.744,21.1 38.944,21.2 38.744,21.3 "
     id="polygon1057"
     transform="matrix(3.7277764,0,0,3.7277764,-85.414836,-53.941777)"
     style="fill:#000000;stroke:none;stroke-width:0.05" />
  <polygon
     points="38.794,21.2 38.744,21.1 38.944,21.2 38.744,21.3 "
     id="polygon1059"
     transform="matrix(3.7277764,0,0,3.7277764,-85.414836,-53.941777)"
     style="fill:none;stroke:#000000;stroke-width:0.05" />
  <polyline
     points="35.206,24.400 36.000,24.400 36.000,23.600 38.200,23.600 38.200,24.400 38.794,24.400 "
     id="polyline1061"
     transform="matrix(3.7277764,0,0,3.7277764,-85.414836,-53.941777)"
     style="fill:none;stroke:#000000;stroke-width:0.05;stroke-dasharray:0.1, 0.1" />
  <polygon
     points="35.206,24.4 35.256,24.5 35.056,24.4 35.256,24.3 "
     id="polygon1063"
     transform="matrix(3.7277764,0,0,3.7277764,-85.414836,-53.941777)"
     style="fill:#000000;stroke:none;stroke-width:0.05" />
  <polygon
     points="35.206,24.4 35.256,24.5 35.056,24.4 35.256,24.3 "
     id="polygon1065"
     transform="matrix(3.7277764,0,0,3.7277764,-85.414836,-53.941777)"
     style="fill:none;stroke:#000000;stroke-width:0.05" />
  <polygon
     points="38.794,24.4 38.744,24.3 38.944,24.4 38.744,24.5 "
     id="polygon1067"
     transform="matrix(3.7277764,0,0,3.7277764,-85.414836,-53.941777)"
     style="fill:#000000;stroke:none;stroke-width:0.05" />
  <polygon
     points="38.794,24.4 38.744,24.3 38.944,24.4 38.744,24.5 "
     id="polygon1069"
     transform="matrix(3.7277764,0,0,3.7277764,-85.414836,-53.941777)"
     style="fill:none;stroke:#000000;stroke-width:0.05" />
  <line
     x1="50.298588"
     y1="31.797081"
     x2="55.47274"
     y2="31.797081"
     id="line1071"
     style="stroke:#000000;stroke-width:0.18638882" />
  <polygon
     points="36.406,23 36.456,23.1 36.256,23 36.456,22.9 "
     id="polygon1073"
     transform="matrix(3.7277764,0,0,3.7277764,-85.414836,-53.941777)"
     style="fill:#000000;stroke:none;stroke-width:0.05" />
  <polygon
     points="36.406,23 36.456,23.1 36.256,23 36.456,22.9 "
     id="polygon1075"
     transform="matrix(3.7277764,0,0,3.7277764,-85.414836,-53.941777)"
     style="fill:none;stroke:#000000;stroke-width:0.05" />
  <polygon
     points="37.794,23 37.744,22.9 37.944,23 37.744,23.1 "
     id="polygon1077"
     transform="matrix(3.7277764,0,0,3.7277764,-85.414836,-53.941777)"
     style="fill:#000000;stroke:none;stroke-width:0.05" />
  <polygon
     points="37.794,23 37.744,22.9 37.944,23 37.744,23.1 "
     id="polygon1079"
     transform="matrix(3.7277764,0,0,3.7277764,-85.414836,-53.941777)"
     style="fill:none;stroke:#000000;stroke-width:0.05" />
  <path
     d="m 71.524553,44.251582 v 1.919805 h 1.133244 v -1.919805 h -1.133244"
     id="path1081"
     inkscape:connector-curvature="0"
     style="fill:#b7b79d;stroke:none;stroke-width:0.00372778" />
  <path
     d="m 71.524553,44.251582 v 1.919805 h 1.133244 v -1.919805 h -1.133244"
     id="path1083"
     inkscape:connector-curvature="0"
     style="fill:none;stroke:#494936;stroke-width:0.00372778" />
  <path
     d="m 71.524553,44.251582 0.152839,-0.152839 h 1.133244 l -0.152839,0.152839 h -1.133244"
     id="path1085"
     inkscape:connector-curvature="0"
     style="fill:#c9c9b6;stroke:none;stroke-width:0.00372778" />
  <path
     d="m 71.524553,44.251582 0.152839,-0.152839 h 1.125788"
     id="path1087"
     inkscape:connector-curvature="0"
     style="fill:none;stroke:#494936;stroke-width:0.00372778" />
  <path
     d="m 72.80318,44.106199 -0.145383,0.145383 h -1.133244"
     id="path1089"
     inkscape:connector-curvature="0"
     style="fill:none;stroke:#494936;stroke-width:0.00372778" />
  <path
     d="m 71.595381,44.363416 h 0.518161 v 0.253488 h -0.518161 v -0.253488"
     id="path1091"
     inkscape:connector-curvature="0"
     style="fill:#c9c9b6;stroke:none;stroke-width:0.00372778" />
  <path
     d="m 71.595381,44.363416 h 0.518161 v 0.253488 h -0.518161 v -0.253488"
     id="path1093"
     inkscape:connector-curvature="0"
     style="fill:none;stroke:#626248;stroke-width:0.00372778" />
  <path
     d="m 71.662481,44.49016 h 0.365322"
     id="path1095"
     inkscape:connector-curvature="0"
     style="fill:none;stroke:#ecece7;stroke-width:0.05591664" />
  <path
     d="m 72.657797,46.171387 0.152839,-0.156567 v -1.916077 l -0.152839,0.152839 v 1.919805"
     id="path1097"
     inkscape:connector-curvature="0"
     style="fill:#7a7a5a;stroke:none;stroke-width:0.00372778" />
  <path
     d="M 72.657797,46.171387 72.80318,46.026004"
     id="path1099"
     inkscape:connector-curvature="0"
     style="fill:none;stroke:#494936;stroke-width:0.00372778" />
  <path
     d="m 72.80318,44.106199 -0.145383,0.145383 v 1.919805"
     id="path1101"
     inkscape:connector-curvature="0"
     style="fill:none;stroke:#494936;stroke-width:0.00372778" />
  <path
     d="m 71.539464,46.044643 h 1.118333"
     id="path1103"
     inkscape:connector-curvature="0"
     style="fill:none;stroke:#ecece7;stroke-width:0.05591664" />
  <path
     d="m 71.539464,45.023232 h 1.118333"
     id="path1105"
     inkscape:connector-curvature="0"
     style="fill:none;stroke:#000000;stroke-width:0.05591664" />
  <path
     d="m 71.524553,46.029732 h 1.133244"
     id="path1107"
     inkscape:connector-curvature="0"
     style="fill:none;stroke:#494936;stroke-width:0.05591664" />
  <path
     d="m 71.524553,45.008321 h 1.133244"
     id="path1109"
     inkscape:connector-curvature="0"
     style="fill:none;stroke:#000000;stroke-width:0.05591664" />
  <path
     d="M 71.595381,44.601993 V 44.363416 H 72.09863"
     id="path1111"
     inkscape:connector-curvature="0"
     style="fill:none;stroke:#ecece7;stroke-width:0.00372778" />
</svg>
